<?xml version="1.0" encoding="UTF-8" standalone="no"?>
<!-- Created using Karbon14, part of koffice: http://www.koffice.org/karbon -->

<svg
   xmlns:dc="http://purl.org/dc/elements/1.1/"
   xmlns:cc="http://creativecommons.org/ns#"
   xmlns:rdf="http://www.w3.org/1999/02/22-rdf-syntax-ns#"
   xmlns:svg="http://www.w3.org/2000/svg"
   xmlns="http://www.w3.org/2000/svg"
   xmlns:sodipodi="http://sodipodi.sourceforge.net/DTD/sodipodi-0.dtd"
   xmlns:inkscape="http://www.inkscape.org/namespaces/inkscape"
   width="595.277pt"
   height="841.891pt"
   id="svg2"
   version="1.1"
   inkscape:version="0.48.0 r9654"
   sodipodi:docname="network.svg">
  <metadata
     id="metadata11">
    <rdf:RDF>
      <cc:Work
         rdf:about="">
        <dc:format>image/svg+xml</dc:format>
        <dc:type
           rdf:resource="http://purl.org/dc/dcmitype/StillImage" />
        <dc:title></dc:title>
      </cc:Work>
    </rdf:RDF>
  </metadata>
  <sodipodi:namedview
     pagecolor="#ffffff"
     bordercolor="#666666"
     borderopacity="1"
     objecttolerance="10"
     gridtolerance="10"
     guidetolerance="10"
     inkscape:pageopacity="0"
     inkscape:pageshadow="2"
     inkscape:window-width="955"
     inkscape:window-height="926"
     id="namedview9"
     showgrid="true"
     inkscape:zoom="0.96"
     inkscape:cx="396.75037"
     inkscape:cy="721.17984"
     inkscape:window-x="0"
     inkscape:window-y="0"
     inkscape:window-maximized="0"
     inkscape:current-layer="svg2">
    <inkscape:grid
       type="xygrid"
       id="grid2988" />
  </sodipodi:namedview>
  <defs
     id="defs4" />
  <g
     id="defitem0"
     inkscape:export-filename="/home/gwd/staudacher/network.png"
     inkscape:export-xdpi="68.493149"
     inkscape:export-ydpi="68.493149"
     transform="matrix(-1,0,0,-1,748.156,603.072)">
    <path
       id="defitem1"
       d="m 0,69.5649 142.512,0 0,39.6371 57.02,-67.0199 L 143.35,-22 l 0.087,38.1274 c 0.035,0.0426 -0.61,0.0294 -1.843,-0.0113 C 49.8689,15.5641 0.382119,9.9595 0,69.5649 z"
       transform="translate(265.312,267.935)"
       inkscape:connector-curvature="0"
       style="fill:#f1f1f1;fill-rule:evenodd;stroke:#a0a0a0;stroke-width:1.25;stroke-linecap:square;stroke-linejoin:bevel"
       sodipodi:nodetypes="cccccccc" />
    <path
       sodipodi:nodetypes="cccccccc"
       style="fill:#f1f1f1;fill-rule:evenodd;stroke:#a0a0a0;stroke-width:1.25;stroke-linecap:square;stroke-linejoin:bevel"
       inkscape:connector-curvature="0"
       transform="translate(265.312,267.935)"
       d="m 0,69.5649 142.512,0 0,39.6371 57.02,-67.0199 L 143.35,-22 l 0.087,38.1274 c 0.035,0.0426 -0.61,0.0294 -1.843,-0.0113 C 49.8689,15.5641 0.382119,9.9595 0,69.5649 z"
       id="path2986" />
  </g>
  <g
     transform="translate(88,-96)"
     inkscape:export-ydpi="68.493149"
     inkscape:export-xdpi="68.493149"
     inkscape:export-filename="/home/gwd/staudacher/network.png"
     id="g2988">
    <path
       sodipodi:nodetypes="cccccccc"
       style="fill:#f1f1f1;fill-rule:evenodd;stroke:#a0a0a0;stroke-width:1.25;stroke-linecap:square;stroke-linejoin:bevel"
       inkscape:connector-curvature="0"
       transform="translate(265.312,267.935)"
       d="m 0,69.5649 142.512,0 0,39.6371 57.02,-67.0199 L 143.35,-22 l 0.087,38.1274 c 0.035,0.0426 -0.61,0.0294 -1.843,-0.0113 C 49.8689,15.5641 0.382119,9.9595 0,69.5649 z"
       id="path2990" />
    <path
       id="path2992"
       d="m 0,69.5649 142.512,0 0,39.6371 57.02,-67.0199 L 143.35,-22 l 0.087,38.1274 c 0.035,0.0426 -0.61,0.0294 -1.843,-0.0113 C 49.8689,15.5641 0.382119,9.9595 0,69.5649 z"
       transform="translate(265.312,267.935)"
       inkscape:connector-curvature="0"
       style="fill:#f1f1f1;fill-rule:evenodd;stroke:#a0a0a0;stroke-width:1.25;stroke-linecap:square;stroke-linejoin:bevel"
       sodipodi:nodetypes="cccccccc" />
  </g>
</svg>
